PathFileType	4	(X/Y/Z)	C:/Users/opensim2020/Desktop/walking_exp_matlab/subject01_walking10_straight_02.trc																																																																																																																															
DataRate	CameraRate	NumFrames	NumMarkers	Units	OrigDataRate	OrigDataStartFrame	OrigNumFrames																																																																																																																											
100	100	4	43	mm	100	2019	262																																																																																																																											
Frame#	Time	LFHD			RFHD			LBHD			RBHD			C7			T10			CLAV			STRN			RBAK			LSHO			LUPA			LELB			LFRM			LWRA			LWRB			LFIN			RSHO			RUPA			RELB			RFRM			RWRA			RWRB			RFIN			LASI			RASI			LPSI			RPSI			LTHI			LKNE			LTIB			LANK			LHEE			LTOE			RTHI			RKNE			RTIB			RANK			RHEE			RTOE			*39			*40			*41			*42		
		X1	Y1	Z1	X2	Y2	Z2	X3	Y3	Z3	X4	Y4	Z4	X5	Y5	Z5	X6	Y6	Z6	X7	Y7	Z7	X8	Y8	Z8	X9	Y9	Z9	X10	Y10	Z10	X11	Y11	Z11	X12	Y12	Z12	X13	Y13	Z13	X14	Y14	Z14	X15	Y15	Z15	X16	Y16	Z16	X17	Y17	Z17	X18	Y18	Z18	X19	Y19	Z19	X20	Y20	Z20	X21	Y21	Z21	X22	Y22	Z22	X23	Y23	Z23	X24	Y24	Z24	X25	Y25	Z25	X26	Y26	Z26	X27	Y27	Z27	X28	Y28	Z28	X29	Y29	Z29	X30	Y30	Z30	X31	Y31	Z31	X32	Y32	Z32	X33	Y33	Z33	X34	Y34	Z34	X35	Y35	Z35	X36	Y36	Z36	X37	Y37	Z37	X38	Y38	Z38	X39	Y39	Z39	X40	Y40	Z40	X41	Y41	Z41	X42	Y42	Z42	X43	Y43	Z43
																																																																																																																																		
1	0	-867.435	1676.42737	967.11694	-842.93091	1683.6123	1079.31067	-980.7832	1629.36377	987.68182	-958.49072	1636.06104	1105.95251	-1012.07733	1437.39368	1016.84259	-1045.9834	1143.45007	1020.84692	-869.27747	1369.28357	1028.71948	-824.83521	1215.0083	1023.00177	-1071.42346	1239.38269	1084.49158	-913.75659	1401.74219	863.46088	-901.6532	1222.2417	772.30157	-873.27008	1072.69739	763.83868	-792.52307	987.29053	754.4101	-682.99438	909.29584	796.52124	-724.50073	885.72046	759.97845	-654.45123	836.43542	768.31525	-946.48511	1392.59253	1174.46362	-1022.89172	1193.06152	1262.29749	-1026.03235	1069.67139	1266.13599	-1010.19318	952.26453	1302.8197	-934.51038	830.75275	1297.89807	-983.58191	834.59253	1329.99915	-952.24017	752.52643	1330.23669	-876.27161	930.83472	921.315	-874.00928	945.32446	1137.92688	-1061.29944	947.71442	975.60266	-1058.40747	954.28076	1121.06494	-943.51624	599.34338	886.52545	-976.4447	466.71567	904.95703	-1052.61853	291.89047	904.51215	-1105.54773	80.26065	968.88501	-1154.03308	56.3558	1021.56171	-960.66138	38.00027	965.83588	-865.17047	620.41266	1216.65002	-813.17792	470.29727	1193.82373	-829.85254	297.28653	1203.3501	-792.41852	89.2897	1166.71338	-821.36023	41.61583	1109.63	-649.46637	74.8415	1187.55933	-857.63	1716.81042	1057.54822	-1973.01636	1023.43311	3101.99878	-2012.50586	1021.94427	3140.72144	NaN	NaN	NaN
2	0.01	-861.26807	1675.86011	968.27588	-836.56	1682.92908	1080.48303	-974.56799	1628.81897	989.00983	-952.10828	1635.4425	1107.26611	-1005.79456	1436.77197	1018.25385	-1040.02661	1142.91418	1022.20105	-862.95099	1368.62585	1029.88623	-818.60669	1214.43115	1023.6521	-1064.85364	1238.64819	1085.8761	-907.89294	1401.28503	864.57416	-895.73816	1221.94067	773.21729	-866.57709	1072.79919	764.60114	-785.17175	987.53711	754.98993	-675.01428	910.56891	796.99323	-716.66998	886.56415	760.74573	-646.04199	838.11292	768.62787	-939.83191	1391.89612	1175.61804	-1015.91522	1192.3158	1263.68652	-1019.14954	1068.91296	1267.41626	-1003.20148	951.47485	1303.89124	-927.78265	829.87726	1298.86133	-976.6994	833.9093	1331.25415	-945.25922	751.62122	1331.10071	-870.34875	930.22742	921.90741	-866.96954	944.39587	1138.51501	-1055.20667	947.0528	977.11993	-1051.54248	953.48755	1122.49683	-939.38806	599.00049	887.0116	-973.24097	466.4574	905.37488	-1050.68872	292.38519	904.78601	-1105.51025	81.03486	968.76538	-1153.61926	57.20195	1021.68207	-960.55688	38.02852	965.80096	-860.1217	618.8877	1216.87769	-807.23016	470.03668	1194.02942	-819.08289	296.58884	1204.31738	-776.6571	89.26037	1168.09705	-804.57568	40.57515	1111.69763	-632.78455	77.64757	1187.05566	-851.24518	1716.34558	1058.87732	-1973.13818	1023.41144	3101.91699	-2012.51038	1021.93884	3140.49561	NaN	NaN	NaN
3	0.02	-855.09882	1675.2749	969.5542	-830.20642	1682.27673	1081.75732	-968.36536	1628.276	990.40924	-945.72638	1634.76453	1108.61426	-999.56372	1436.13257	1019.68787	-1033.2926	1142.12598	1023.59875	-856.59967	1368.02124	1030.87109	-812.25739	1213.72974	1024.38989	-1058.36487	1237.91235	1087.39136	-902.11694	1400.8335	865.7536	-889.9173	1221.59229	774.24902	-859.79205	1072.19434	765.5816	-778.1015	987.90021	755.65051	-667.26801	911.72687	797.461	-708.84534	887.41077	761.35077	-637.75867	839.63995	768.97131	-933.0675	1391.11023	1176.81482	-1008.82666	1191.54456	1265.15906	-1012.11682	1068.03479	1268.62146	-996.17657	950.80206	1305.43542	-920.82458	829.14911	1300.08154	-969.55383	833.14136	1332.55933	-938.15369	751.04022	1332.69824	-864.32678	929.58307	922.4549	-859.92932	943.59839	1139.13989	-1049.02112	946.42218	978.71191	-1044.8429	952.72217	1124.13599	-935.12976	598.66791	887.51587	-969.79468	466.25299	905.81964	-1048.68469	292.89514	905.0882	-1105.15393	81.80245	968.77863	-1153.37952	58.48616	1021.79944	-960.79865	38.1642	965.73932	-853.98029	618.22791	1217.23633	-800.7973	469.36008	1193.88818	-808.5025	296.05261	1205.04565	-762.19183	89.61779	1169.38879	-790.26648	40.28737	1113.52307	-617.51477	80.89999	1186.01685	-844.94788	1715.52136	1060.04395	-1973.18909	1023.44806	3101.90747	-2012.4989	1022.08356	3140.64087	NaN	NaN	NaN
4	0.03	-848.90326	1674.6875	970.90637	-823.86377	1681.64917	1083.08813	-962.15381	1627.68652	991.91962	-939.32355	1634.07983	1110.15649	-993.34052	1435.45227	1021.2052	-1026.88879	1141.4502	1025.06799	-850.27936	1367.3623	1031.99963	-805.85065	1213.17017	1025.1781	-1051.74109	1237.16406	1088.88525	-896.19525	1400.30115	867.05597	-884.04901	1221.12854	775.37213	-853.54254	1072.27563	766.45239	-771.15326	988.18707	756.50787	-659.68414	912.80042	798.01697	-701.09186	888.20996	761.99402	-629.75385	840.94513	769.39215	-926.33411	1390.32593	1178.13477	-1001.74377	1190.70801	1266.71423	-1005.11664	1067.30103	1270.15747	-989.05713	949.99225	1306.84717	-913.64691	828.31671	1301.29395	-962.38586	832.36108	1333.86536	-930.90466	750.25488	1334.10583	-858.20618	929.02991	922.9223	-852.91663	942.75812	1139.79553	-1042.75244	945.83044	980.41467	-1038.026	951.94769	1125.8302	-930.84595	598.25922	887.98468	-966.40662	466.27448	906.19647	-1046.62305	293.41373	905.52606	-1104.62622	82.68645	968.8291	-1153.01208	59.60798	1021.85858	-960.55646	38.10433	965.79926	-848.10944	616.83313	1217.72815	-794.01245	468.67529	1193.81396	-798.14069	295.6582	1205.9707	-748.84631	89.86391	1170.23401	-776.43573	39.4029	1115.31213	-603.78589	83.62883	1184.44238	-838.62262	1715.03369	1061.50977	-1973.16626	1023.5614	3101.948	-2012.50647	1022.13086	3140.6001	NaN	NaN	NaN
